<svg width="100" height="100" viewBox="0 0 100 100" fill="none" xmlns="http://www.w3.org/2000/svg">
<mask id="path-1-inside-1_1555_3055" fill="white">
<path d="M0 32.001C0 14.3279 14.3269 0.000976562 32 0.000976562L68 0.000976562C85.6731 0.000976562 100 14.3279 100 32.001V68.001C100 85.6741 85.6731 100.001 68 100.001H32C14.3269 100.001 0 85.6741 0 68.001L0 32.001Z"/>
</mask>
<path d="M0 32.001C0 14.3279 14.3269 0.000976562 32 0.000976562L68 0.000976562C85.6731 0.000976562 100 14.3279 100 32.001V68.001C100 85.6741 85.6731 100.001 68 100.001H32C14.3269 100.001 0 85.6741 0 68.001L0 32.001Z" fill="url(#paint0_linear_1555_3055)"/>
<path d="M0 0.000976562L100 0.000976562L0 0.000976562ZM100 68.001C100 92.3015 80.3005 112.001 56 112.001H44C19.6995 112.001 0 92.3015 0 68.001C0 79.0467 14.3269 88.001 32 88.001H68C85.6731 88.001 100 79.0467 100 68.001ZM0 100.001L0 0.000976562L0 100.001ZM100 0.000976562V100.001V0.000976562Z" fill="#519872" mask="url(#path-1-inside-1_1555_3055)"/>
<defs>
<linearGradient id="paint0_linear_1555_3055" x1="50" y1="8.34511e-07" x2="50" y2="90" gradientUnits="userSpaceOnUse">
<stop stop-color="#519872"/>
<stop offset="0.418929" stop-color="#519872" stop-opacity="0.821193"/>
<stop offset="0.840118" stop-color="#519872" stop-opacity="0.550866"/>
<stop offset="1" stop-color="#519872" stop-opacity="0.5"/>
</linearGradient>
</defs>
</svg>
