<svg width="81" height="39" viewBox="0 0 81 39" fill="none" xmlns="http://www.w3.org/2000/svg">
<path d="M19.1106 32.9447C19.1106 29.5526 16.4454 26.8874 13.0534 26.8874C9.66129 26.8874 6.99609 29.5526 6.99609 32.9447C6.99609 36.3368 9.66129 39.002 13.0534 39.002C16.4454 39.002 19.1106 36.3368 19.1106 32.9447Z" fill="#261C15"/>
<path d="M39.2305 6.05797C39.2305 9.45004 41.8957 12.1152 45.2877 12.1152C48.6798 12.1152 51.345 9.45004 51.345 6.05797C51.345 2.66591 48.6798 0.000710873 45.2877 0.000710873C41.8957 0.000710873 39.2305 2.66591 39.2305 6.05797Z" fill="#261C15"/>
<path d="M22.9922 6.05797C22.9922 9.45004 25.6574 12.1152 29.0494 12.1152C32.4415 12.1152 35.1067 9.45004 35.1067 6.05797C35.1067 2.66591 32.4415 0.000710873 29.0494 0.000710873C25.6574 0.000710873 22.9922 2.66591 22.9922 6.05797Z" fill="#261C15"/>
<path d="M55.2266 6.05797C55.2266 9.45004 57.8918 12.1152 61.2838 12.1152C64.6759 12.1152 67.3411 9.45004 67.3411 6.05797C67.3411 2.66591 64.6759 0.000710873 61.2838 0.000710873C57.8918 0.000710873 55.2266 2.66591 55.2266 6.05797Z" fill="#261C15"/>
<path d="M6.99609 6.05797C6.99609 9.45004 9.66129 12.1152 13.0534 12.1152C16.4454 12.1152 19.1106 9.45004 19.1106 6.05797C19.1106 2.66591 16.4454 0.000710873 13.0534 0.000710873C9.66129 0.000710873 6.99609 2.66591 6.99609 6.05797Z" fill="#261C15"/>
<path d="M51.345 32.9447C51.345 29.5994 48.6331 26.8874 45.2877 26.8874C41.9424 26.8874 39.2305 29.5994 39.2305 32.9447C39.2305 36.29 41.9424 39.002 45.2877 39.002C48.6331 39.002 51.345 36.29 51.345 32.9447Z" fill="#261C15"/>
<path d="M75.5794 19.372C75.5794 15.9799 72.9142 13.3147 69.5221 13.3147C66.13 13.3147 63.4648 15.9799 63.4648 19.372C63.4648 22.764 66.13 25.4292 69.5221 25.4292C72.9142 25.6715 75.5794 22.764 75.5794 19.372Z" fill="#261C15"/>
<path d="M47.2148 19.3705C47.2148 22.7625 49.88 25.4277 53.2721 25.4277C56.6642 25.4277 59.3294 22.7625 59.3294 19.3705C59.3294 15.9784 56.6642 13.3132 53.2721 13.3132C49.88 13.3132 47.2148 15.9784 47.2148 19.3705Z" fill="#261C15"/>
<path d="M35.3567 32.9447C35.3567 29.5526 32.6915 26.8874 29.2994 26.8874C25.9074 26.8874 23.2422 29.5526 23.2422 32.9447C23.2422 36.3368 25.9074 39.002 29.2994 39.002C32.4492 39.002 35.3567 36.3368 35.3567 32.9447Z" fill="#261C15"/>
<path d="M55.2266 32.9447C55.2266 36.3368 57.8918 39.002 61.2838 39.002C64.6759 39.002 67.3411 36.3368 67.3411 32.9447C67.3411 29.5526 64.6759 26.8874 61.2838 26.8874C57.8918 26.8874 55.2266 29.5526 55.2266 32.9447Z" fill="#261C15"/>
<path d="M31.0117 19.3705C31.0117 22.7625 33.6769 25.4277 37.069 25.4277C40.461 25.4277 43.1262 22.7625 43.1262 19.3705C43.1262 15.9784 40.461 13.3132 37.069 13.3132C33.9192 13.3132 31.0117 15.9784 31.0117 19.3705Z" fill="#261C15"/>
<path d="M27.1223 19.372C27.1223 15.9799 24.4571 13.3147 21.0651 13.3147C17.673 13.3147 15.0078 15.9799 15.0078 19.372C15.0078 22.764 17.673 25.4292 21.0651 25.4292C24.4571 25.6715 27.1223 22.764 27.1223 19.372Z" fill="#261C15"/>
<path d="M12.1145 19.372C12.1145 15.9799 9.44932 13.3147 6.05726 13.3147C2.66519 13.3147 0 15.9799 0 19.372C0 22.764 2.66519 25.4292 6.05726 25.4292C9.44932 25.6715 12.1145 22.764 12.1145 19.372Z" fill="#261C15"/>
<path d="M71.1055 4.49316V3.63477H74.791V4.49316H73.4668V8H72.4297V4.49316H71.1055ZM75.1426 3.63477H76.4492L77.5566 6.33594H77.6064L78.7168 3.63477H80.0264V8H78.9922V5.31641H78.9629L77.9082 7.9707H77.252L76.2061 5.30762H76.1709V8H75.1426V3.63477Z" fill="#261C15"/>
</svg>
