<svg width="100" height="100" viewBox="0 0 100 100" fill="none" xmlns="http://www.w3.org/2000/svg">
<mask id="path-1-inside-1_1721_138" fill="white">
<path d="M14.6444 85.3553C-4.88181 65.8291 -4.88181 34.1709 14.6444 14.6447V14.6447C34.1706 -4.88155 65.8289 -4.88155 85.3551 14.6447V14.6447C104.881 34.1709 104.881 65.8291 85.3551 85.3553V85.3553C65.8289 104.882 34.1706 104.882 14.6444 85.3553V85.3553Z"/>
</mask>
<path d="M14.6444 85.3553C-4.88181 65.8291 -4.88181 34.1709 14.6444 14.6447V14.6447C34.1706 -4.88155 65.8289 -4.88155 85.3551 14.6447V14.6447C104.881 34.1709 104.881 65.8291 85.3551 85.3553V85.3553C65.8289 104.882 34.1706 104.882 14.6444 85.3553V85.3553Z" fill="#261C15" fill-opacity="0.5"/>
<path d="M-20.7109 50L49.9997 -20.7107L-20.7109 50ZM102.326 31.6152C121.852 51.1414 121.852 82.7997 102.326 102.326C82.7994 121.852 51.1412 121.852 31.615 102.326L14.6444 85.3553C24.798 95.509 48.8583 87.911 68.3845 68.3848C87.9107 48.8586 95.5087 24.7983 85.3551 14.6447L102.326 31.6152ZM49.9997 120.711L-20.7109 50L49.9997 120.711ZM49.9997 -20.7107L120.71 50L49.9997 -20.7107Z" fill="#261C15" mask="url(#path-1-inside-1_1721_138)"/>
</svg>
