<svg width="100" height="100" viewBox="0 0 100 100" fill="none" xmlns="http://www.w3.org/2000/svg">
<mask id="path-1-inside-1_1563_3146" fill="white">
<path d="M0 32C0 14.3269 14.3269 0 32 0L68 0C85.6731 0 100 14.3269 100 32V68C100 85.6731 85.6731 100 68 100H32C14.3269 100 0 85.6731 0 68L0 32Z"/>
</mask>
<path d="M0 32C0 14.3269 14.3269 0 32 0L68 0C85.6731 0 100 14.3269 100 32V68C100 85.6731 85.6731 100 68 100H32C14.3269 100 0 85.6731 0 68L0 32Z" fill="#519872" fill-opacity="0.3"/>
<path d="M0 0L100 0L0 0ZM100 68C100 92.3005 80.3005 112 56 112H44C19.6995 112 0 92.3005 0 68C0 79.0457 14.3269 88 32 88H68C85.6731 88 100 79.0457 100 68ZM0 100L0 0L0 100ZM100 0V100V0Z" fill="#519872" mask="url(#path-1-inside-1_1563_3146)"/>
</svg>
