<svg width="100" height="100" viewBox="0 0 100 100" fill="none" xmlns="http://www.w3.org/2000/svg">
<mask id="path-1-inside-1_1721_123" fill="white">
<path d="M0 50C0 22.3858 22.3858 0 50 0V0C77.6142 0 100 22.3858 100 50V50C100 77.6142 77.6142 100 50 100V100C22.3858 100 0 77.6142 0 50V50Z"/>
</mask>
<path d="M0 50C0 22.3858 22.3858 0 50 0V0C77.6142 0 100 22.3858 100 50V50C100 77.6142 77.6142 100 50 100V100C22.3858 100 0 77.6142 0 50V50Z" fill="#519872" fill-opacity="0.3"/>
<path d="M0 0L100 0L0 0ZM100 74C100 101.614 77.6142 124 50 124C22.3858 124 0 101.614 0 74L0 50C0 64.3594 22.3858 76 50 76C77.6142 76 100 64.3594 100 50V74ZM0 100L0 0L0 100ZM100 0V100V0Z" fill="#519872" mask="url(#path-1-inside-1_1721_123)"/>
</svg>
